<?xml version="1.0" encoding="UTF-8" standalone="no"?>
<!-- Created with Inkscape (http://www.inkscape.org/) -->

<svg
   width="210mm"
   height="297mm"
   viewBox="0 0 210 297"
   version="1.1"
   id="svg1"
   xml:space="preserve"
   inkscape:export-filename="goldFish.svg"
   inkscape:export-xdpi="96"
   inkscape:export-ydpi="96"
   inkscape:version="1.3.2 (091e20e, 2023-11-25, custom)"
   sodipodi:docname="goldFish.svg"
   xmlns:inkscape="http://www.inkscape.org/namespaces/inkscape"
   xmlns:sodipodi="http://sodipodi.sourceforge.net/DTD/sodipodi-0.dtd"
   xmlns:xlink="http://www.w3.org/1999/xlink"
   xmlns="http://www.w3.org/2000/svg"
   xmlns:svg="http://www.w3.org/2000/svg"><sodipodi:namedview
     id="namedview1"
     pagecolor="#505050"
     bordercolor="#eeeeee"
     borderopacity="1"
     inkscape:showpageshadow="0"
     inkscape:pageopacity="0"
     inkscape:pagecheckerboard="0"
     inkscape:deskcolor="#505050"
     inkscape:document-units="mm"
     inkscape:zoom="0.64"
     inkscape:cx="442.1875"
     inkscape:cy="353.90625"
     inkscape:window-width="1080"
     inkscape:window-height="1849"
     inkscape:window-x="-8"
     inkscape:window-y="-8"
     inkscape:window-maximized="1"
     inkscape:current-layer="g1" /><defs
     id="defs1"><linearGradient
       id="swatch59"
       inkscape:swatch="solid"><stop
         style="stop-color:#f4ff00;stop-opacity:1;"
         offset="0"
         id="stop59" /></linearGradient><linearGradient
       id="linearGradient32"><stop
         style="stop-color:#cbb526;stop-opacity:1;"
         offset="0"
         id="stop35" /><stop
         style="stop-color:#f1ff07;stop-opacity:1;"
         offset="0.82967037"
         id="stop34" /></linearGradient><linearGradient
       id="linearGradient32-1"><stop
         style="stop-color:#f4ff14;stop-opacity:1;"
         offset="0.32142857"
         id="stop32" /><stop
         style="stop-color:#f4ff14;stop-opacity:0;"
         offset="1"
         id="stop33" /></linearGradient><clipPath
       clipPathUnits="userSpaceOnUse"
       id="clipPath28"><rect
         style="fill:#000000;stroke:none;stroke-width:0.999995;stroke-linecap:butt;stroke-linejoin:bevel;paint-order:stroke markers fill;stop-color:#000000"
         id="rect28"
         width="46.19186"
         height="80.006783"
         x="74.999985"
         y="399.99661" /></clipPath><clipPath
       clipPathUnits="userSpaceOnUse"
       id="clipPath33"><rect
         style="fill:#000000;stroke:none;stroke-width:0.999995;stroke-linecap:butt;stroke-linejoin:bevel;paint-order:stroke markers fill;stop-color:#000000"
         id="rect33"
         width="46.19186"
         height="80.006783"
         x="74.999985"
         y="399.99661" /></clipPath><inkscape:path-effect
       effect="bspline"
       id="path-effect14"
       is_visible="true"
       lpeversion="1.3"
       weight="33.333333"
       steps="2"
       helper_size="0"
       apply_no_weight="true"
       apply_with_weight="true"
       only_selected="false"
       uniform="false" /><inkscape:path-effect
       effect="bspline"
       id="path-effect13"
       is_visible="true"
       lpeversion="1.3"
       weight="33.333333"
       steps="2"
       helper_size="0"
       apply_no_weight="true"
       apply_with_weight="true"
       only_selected="false"
       uniform="false" /><inkscape:path-effect
       effect="bspline"
       id="path-effect12"
       is_visible="true"
       lpeversion="1.3"
       weight="33.333333"
       steps="2"
       helper_size="0"
       apply_no_weight="true"
       apply_with_weight="true"
       only_selected="false"
       uniform="false" /><inkscape:path-effect
       effect="bspline"
       id="path-effect11"
       is_visible="true"
       lpeversion="1.3"
       weight="33.333333"
       steps="2"
       helper_size="0"
       apply_no_weight="true"
       apply_with_weight="true"
       only_selected="false"
       uniform="false" /><inkscape:path-effect
       effect="bspline"
       id="path-effect10"
       is_visible="true"
       lpeversion="1.3"
       weight="33.333333"
       steps="2"
       helper_size="0"
       apply_no_weight="true"
       apply_with_weight="true"
       only_selected="false"
       uniform="false" /><inkscape:path-effect
       effect="bspline"
       id="path-effect9"
       is_visible="true"
       lpeversion="1.3"
       weight="33.333333"
       steps="2"
       helper_size="0"
       apply_no_weight="true"
       apply_with_weight="true"
       only_selected="false"
       uniform="false" /><inkscape:path-effect
       effect="bspline"
       id="path-effect8"
       is_visible="true"
       lpeversion="1.3"
       weight="33.333333"
       steps="2"
       helper_size="0"
       apply_no_weight="true"
       apply_with_weight="true"
       only_selected="false"
       uniform="false" /><inkscape:path-effect
       effect="bspline"
       id="path-effect7"
       is_visible="true"
       lpeversion="1.3"
       weight="33.333333"
       steps="2"
       helper_size="0"
       apply_no_weight="true"
       apply_with_weight="true"
       only_selected="false"
       uniform="false" /><inkscape:path-effect
       effect="bspline"
       id="path-effect6"
       is_visible="true"
       lpeversion="1.3"
       weight="33.333333"
       steps="2"
       helper_size="0"
       apply_no_weight="true"
       apply_with_weight="true"
       only_selected="false"
       uniform="false" /><radialGradient
       inkscape:collect="always"
       xlink:href="#linearGradient32"
       id="radialGradient63"
       cx="110.21657"
       cy="147.57697"
       fx="110.21657"
       fy="147.57697"
       r="27.129955"
       gradientTransform="matrix(1,0,0,1.4696421,0.70873516,-68.264839)"
       gradientUnits="userSpaceOnUse" /></defs><g
     inkscape:label="Ebene 1"
     inkscape:groupmode="layer"
     id="layer1"><g
       id="g1"
       transform="matrix(3.4998528,0,0,3.5655396,-281.87389,-384.39647)"
       style="display:inline"><path
         id="path6"
         style="opacity:0.66;fill:url(#radialGradient63);stroke-width:0.0750168;stroke-dasharray:none"
         d="m 114.90963,108.74925 c -0.0793,0.003 -0.20336,0.0258 -0.3802,0.0728 -0.70738,0.188 -2.25982,0.75722 -3.55918,1.38527 -1.29937,0.62805 -2.34559,1.31485 -3.38052,2.19935 -1.03494,0.88451 -2.05857,1.96677 -2.80231,3.36216 -0.74375,1.39539 -1.20754,3.10386 -1.60647,4.77119 -0.39892,1.66735 -0.73291,3.29339 -1.28974,5.06295 -0.55684,1.76956 -1.33646,3.68254 -2.011633,4.86453 -0.675171,1.18199 -1.245965,1.63292 -1.816725,1.88572 -0.570762,0.2528 -1.141421,0.3074 -1.663461,0.21175 -0.522039,-0.0956 -0.995345,-0.34156 -1.407725,-0.83163 -0.41238,-0.49006 -0.763796,-1.22427 -0.939517,-1.59136 -0.175721,-0.36709 -0.17588,-0.36698 -0.243775,0.35537 -0.0679,0.72237 -0.203693,2.16704 -0.104539,3.36767 0.09915,1.20063 0.433338,2.15709 0.837046,3.05895 0.403708,0.90186 0.876986,1.74904 1.54519,2.33661 0.668205,0.58758 1.531303,0.91562 2.324799,1.2299 0.793496,0.31429 1.517377,0.61487 2.3248,0.98381 0.80742,0.36894 1.69838,0.80627 2.46403,1.24352 0.76566,0.43727 1.40597,0.87449 1.79576,1.32542 0.38979,0.45093 0.529,0.91554 0.54292,1.44846 0.0139,0.53291 -0.0975,1.13408 -0.18102,1.72166 -0.0835,0.58757 -0.13914,1.16143 0.0279,1.76267 0.16705,0.60124 0.55676,1.22979 1.1136,1.995 0.55683,0.76522 1.28071,1.66712 1.68442,2.55532 0.40371,0.88819 0.48732,1.76269 0.41771,2.58256 -0.0696,0.81987 -0.29245,1.58503 -0.55694,2.19994 -0.2645,0.6149 -0.57067,1.07954 -0.82125,0.80626 -0.25058,-0.27328 -0.44544,-1.28446 -0.7517,-1.94036 -0.30626,-0.6559 -0.724,-0.95648 -1.09987,-0.98381 -0.37587,-0.0273 -0.7099,0.21856 -0.76558,0.75148 -0.0557,0.53291 0.16704,1.35272 0.34802,2.25458 0.18097,0.90185 0.32015,1.88566 0.30623,2.4869 -0.0139,0.60125 -0.18091,0.81999 -0.76558,1.70818 -0.58468,0.88819 -1.58696,2.44584 -2.28301,2.89678 -0.69605,0.45094 -1.08588,-0.20495 -1.32253,-1.36643 -0.23666,-1.16148 -0.32021,-2.82855 -0.48726,-4.90555 -0.16705,-2.077 -0.417563,-4.56392 -0.863033,-6.46328 -0.445468,-1.89938 -1.085811,-3.21114 -1.837543,-4.71424 -0.751733,-1.5031 -1.614883,-3.19737 -2.603273,-4.45452 -0.98839,-1.25713 -2.102023,-2.07704 -2.533581,-2.364 -0.431556,-0.28696 -0.180948,-0.041 0.04179,0.34161 0.222735,0.38261 0.417614,0.90189 0.598586,1.54412 0.180973,0.64221 0.348034,1.40736 0.292353,2.40487 -0.05568,0.99751 -0.334069,2.22735 -0.654251,2.89692 -0.32018,0.66956 -0.682235,0.77887 -1.795905,0.87452 -1.11367,0.0957 -2.979021,0.17766 -4.371124,0.47828 -1.392104,0.30062 -2.310819,0.81986 -2.589246,1.12048 -0.278427,0.30062 0.08352,0.38252 0.793488,0.46451 0.709968,0.082 1.76789,0.16402 2.742362,0.42364 0.974472,0.25962 1.865354,0.69687 2.589246,1.36643 0.723892,0.66956 1.280859,1.57143 1.587124,2.32298 0.306265,0.75156 0.361809,1.35272 0.292205,2.06327 -0.0696,0.71055 -0.264484,1.53044 -0.598585,1.88572 -0.334103,0.35528 -0.807324,0.24594 -1.266717,-0.041 -0.459392,-0.28696 -0.904806,-0.75155 -1.155386,-1.31179 -0.25058,-0.56025 -0.306261,-1.21606 -0.445469,-1.43469 -0.139209,-0.21864 -0.362045,-6e-5 -0.362046,0.75147 -10e-7,0.75155 0.222743,2.03607 0.640372,3.18389 0.417628,1.14783 1.030195,2.15899 1.86545,3.1565 0.835255,0.99751 1.893255,1.98131 2.96517,2.73285 1.071917,0.75156 2.157665,1.27075 3.340949,1.66702 1.183282,0.39628 2.463931,0.66956 3.090384,0.87453 0.62645,0.20497 0.59862,0.34164 0.48725,0.66959 -0.11136,0.32795 -0.30617,0.84712 -0.47322,1.626 -0.16706,0.77888 -0.306343,1.81738 -0.320263,2.91055 -0.0139,1.09316 0.0975,2.24096 0.473373,3.45708 0.37586,1.21614 1.01619,2.50058 1.79576,3.74406 0.77957,1.24347 1.6983,2.44598 2.43612,3.33418 0.73782,0.8882 1.29458,1.46206 1.75397,1.85833 0.4594,0.39628 0.82139,0.6149 1.51744,0.77887 0.69603,0.16398 1.72617,0.27323 2.47791,0.31422 0.75174,0.041 1.22504,0.0137 2.22735,-0.69684 1.0023,-0.71055 2.53364,-2.10432 3.89789,-3.4981 1.36427,-1.39379 2.56134,-2.78747 3.20172,-3.96262 0.64036,-1.17514 0.72388,-2.13174 0.79348,-3.2249 0.0696,-1.09316 0.1254,-2.32287 0.014,-3.52535 -0.11137,-1.20248 -0.38987,-2.37759 -0.41771,-3.11548 -0.0278,-0.73789 0.19497,-1.03854 0.76573,-1.29816 0.57076,-0.25963 1.48947,-0.47829 2.74236,-1.0112 1.25289,-0.53292 2.83978,-1.38006 4.13444,-2.44589 1.29465,-1.06583 2.297,-2.35033 3.1044,-4.0174 0.80742,-1.66707 1.41993,-3.71658 1.78188,-5.43832 0.36195,-1.72174 0.47336,-3.11546 0.52904,-4.23596 0.0557,-1.12048 0.0556,-1.96767 -0.0836,-2.18631 -0.13921,-0.21864 -0.41764,0.1912 -1.08584,0.51915 -0.6682,0.32795 -1.72609,0.57396 -2.50567,0.27334 -0.77958,-0.30061 -1.28077,-1.14778 -1.51743,-2.19993 -0.23667,-1.05217 -0.20888,-2.30931 0.32011,-3.53912 0.52899,-1.22981 1.55918,-2.43228 2.65894,-3.34781 1.09975,-0.91553 2.26909,-1.54412 2.67281,-1.83108 0.40372,-0.28696 0.0418,-0.23225 -0.45935,-0.16392 -0.50115,0.0683 -1.1416,0.15038 -1.94902,0.31436 -0.80741,0.16397 -1.78176,0.40988 -2.90936,1.03844 -1.12758,0.62856 -2.40833,1.63963 -3.50809,2.70547 -1.09976,1.06582 -2.0185,2.18631 -2.63103,3.25215 -0.61253,1.06583 -0.91878,2.07708 -1.1415,3.12925 -0.22274,1.05215 -0.36204,2.14519 -0.61262,2.91039 -0.25057,0.76522 -0.61253,1.20247 -0.73782,1.74906 -0.12529,0.54658 -0.0139,1.20254 0.37592,2.06341 0.38979,0.86086 1.05791,1.92659 1.46162,2.80112 0.40371,0.87453 0.54294,1.55774 0.48726,2.09066 -0.0557,0.5329 -0.30618,0.91562 -0.57068,1.42121 -0.2645,0.50559 -0.54293,1.13413 -0.73782,1.80369 -0.1949,0.66956 -0.30625,1.38005 -0.59859,1.72166 -0.29234,0.34161 -0.76574,0.31424 -1.50355,-0.95656 -0.73781,-1.27079 -1.74008,-3.78492 -2.08811,-4.94642 -0.34803,-1.1615 -0.0417,-0.97019 0.23669,-0.72423 0.2784,0.24596 0.529,0.5465 0.73782,0.56017 0.20881,0.0137 0.3758,-0.25954 0.41756,-0.95641 0.0418,-0.69689 -0.0417,-1.81736 -0.30623,-2.33661 -0.26449,-0.51926 -0.70996,-0.43734 -1.23896,-0.31436 -0.529,0.12298 -1.14151,0.28695 -1.68443,0.0957 -0.54291,-0.1913 -1.01617,-0.73792 -1.25283,-1.83108 -0.23666,-1.09316 -0.23671,-2.73278 -0.18103,-3.9216 0.0557,-1.18882 0.16715,-1.92677 0.2646,-2.59633 0.0974,-0.66956 0.1809,-1.27069 0.32011,-1.63962 0.13921,-0.36895 0.33418,-0.50569 0.41771,-0.35538 0.0835,0.15031 0.0556,0.58761 0.0695,1.29816 0.0139,0.71056 0.0696,1.69432 0.3898,1.96761 0.32018,0.2733 0.90489,-0.16392 1.5731,-0.79249 0.6682,-0.62857 1.41981,-1.44838 1.6704,-2.19994 0.25058,-0.75155 5e-5,-1.4348 -0.26445,-1.73542 -0.2645,-0.30063 -0.54295,-0.21855 -0.77961,0.0684 -0.23666,0.28696 -0.43151,0.77881 -0.65425,1.18874 -0.22274,0.40994 -0.47321,0.73793 -0.62634,0.5193 -0.15314,-0.21863 -0.20885,-0.98379 0.0139,-2.10428 0.22274,-1.12049 0.7239,-2.59631 1.1833,-3.5255 0.45939,-0.92919 0.87695,-1.31175 1.40595,-1.61238 0.529,-0.30062 1.16933,-0.51923 2.08811,-1.27077 0.91879,-0.75154 2.11594,-2.03602 2.78415,-3.68941 0.66821,-1.65341 0.80743,-3.67565 0.83527,-5.08309 0.0279,-1.40746 -0.0556,-2.20002 -0.20878,-2.60996 -0.15312,-0.40994 -0.37589,-0.43733 -0.7012,-0.14812 -0.32531,0.28921 -0.75314,0.895 -1.48879,1.5747 -0.73565,0.6797 -1.77908,1.43334 -2.81264,1.8005 -1.03358,0.36717 -2.05725,0.34789 -3.12036,-0.0772 -1.06311,-0.42514 -2.16557,-1.25612 -3.18931,-2.4156 -1.02374,-1.15947 -1.96875,-2.64743 -2.4314,-4.23204 -0.46265,-1.58461 -0.44297,-3.26586 -0.20672,-4.90845 0.23626,-1.64257 0.68905,-3.24643 1.21076,-4.57017 0.52171,-1.32373 1.11231,-2.36723 1.80137,-3.15954 0.68905,-0.79231 1.47663,-1.33333 1.93927,-1.7005 0.347,-0.27537 0.51114,-0.45298 0.27316,-0.44523 z m -4.98063,32.67906 c 0.11812,0 0.35441,1.8e-4 0.63003,0.15478 0.27562,0.1546 0.59056,0.4636 0.86126,1.03367 0.2707,0.57007 0.49718,1.40096 0.53658,2.00485 0.0394,0.60389 -0.10838,0.98087 -0.2265,1.39151 -0.11812,0.41065 -0.20672,0.85514 -0.24112,1.22714 -0.0343,0.372 -0.0148,0.67157 -0.0443,1.05323 -0.0295,0.38165 -0.10828,0.8454 -0.25101,1.20773 -0.14274,0.36234 -0.3495,0.62321 -0.55621,0.59901 -0.20672,-0.0241 -0.41343,-0.33325 -0.57585,-0.87917 -0.16242,-0.54592 -0.28054,-1.32854 -0.28054,-1.92761 0,-0.59906 0.11822,-1.01466 0.17231,-1.42048 0.0542,-0.40582 0.0443,-0.80202 0.0148,-1.28512 -0.0295,-0.48312 -0.0787,-1.05303 -0.10823,-1.59412 -0.0295,-0.54108 -0.0393,-1.05313 -0.0443,-1.30918 -0.005,-0.25604 -0.005,-0.25624 0.11311,-0.25624 z m -0.10262,12.97759 c 0.0108,0.003 0.0287,0.0829 0.0574,0.21102 0.0766,0.34161 0.22964,1.02482 0.70991,2.1453 0.48027,1.12049 1.28768,2.67819 1.87933,3.65521 0.59164,0.97702 0.9676,1.37331 1.20426,2.0292 0.23665,0.6559 0.33402,1.57141 0.47323,2.4801 0.13922,0.90868 0.32016,1.81053 0.59858,2.52792 0.27842,0.71739 0.65435,1.25026 0.91885,1.90616 0.26449,0.65588 0.41762,1.4348 0.29929,2.12486 -0.11833,0.69006 -0.50818,1.29132 -0.96757,1.93355 -0.45939,0.64223 -0.98826,1.32536 -1.42677,2.17255 -0.43852,0.8472 -0.78652,1.8584 -1.28768,2.70561 -0.50115,0.84719 -1.15547,1.53049 -1.5731,1.82427 -0.41764,0.29383 -0.59857,0.19807 -0.64037,-0.0752 -0.0418,-0.27329 0.0557,-0.72403 0.1949,-1.96066 0.13921,-1.23663 0.32014,-3.25918 0.45935,-4.88525 0.13925,-1.62608 0.23665,-2.85562 0.16005,-4.41336 -0.0766,-1.55776 -0.32704,-3.44353 -0.52889,-5.02178 -0.20186,-1.57826 -0.35503,-2.84901 -0.43853,-4.37944 -0.0836,-1.53042 -0.0974,-3.32038 -0.10439,-4.21538 -0.004,-0.55938 -0.006,-0.76966 0.0121,-0.76466 z m 26.55069,6.51604 c -0.032,-0.0284 -0.0169,0.46938 -0.25809,1.13729 -0.27562,0.76332 -0.88602,1.74885 -1.7621,2.55082 -0.87608,0.80197 -2.01786,1.42024 -3.03176,2.06761 -1.01389,0.64738 -1.89979,1.32377 -2.45104,2.15472 -0.55125,0.83096 -0.76785,1.81644 -1.16159,3.03388 -0.39374,1.21745 -0.96466,2.66685 -1.71278,3.9616 -0.7481,1.29475 -1.67335,2.43488 -1.821,2.98562 -0.14765,0.55075 0.48238,0.51205 1.81126,0.36712 1.32888,-0.14494 3.35653,-0.3962 4.79371,-0.70539 1.43717,-0.30919 2.28379,-0.67626 3.09097,-1.14005 0.80717,-0.46377 1.57496,-1.02413 2.27386,-1.70049 0.6989,-0.67636 1.32882,-1.4687 1.64382,-2.09675 0.315,-0.62805 0.31494,-1.09182 0.16729,-1.18845 -0.14765,-0.0966 -0.44291,0.17382 -0.81696,0.44436 -0.37406,0.27055 -0.82691,0.54118 -1.48643,0.7151 -0.65952,0.17392 -1.52574,0.25117 -2.2148,0.0483 -0.68905,-0.20291 -1.20086,-0.68597 -1.4371,-1.17874 -0.23625,-0.49278 -0.19688,-0.9952 0.14765,-1.56528 0.34452,-0.57008 0.99415,-1.20778 1.79147,-2.00007 0.79734,-0.79231 1.7423,-1.73916 2.24433,-2.71503 0.50203,-0.97589 0.56108,-1.98079 0.50202,-2.96635 -0.0591,-0.98555 -0.23624,-1.95171 -0.2953,-2.16428 -0.007,-0.0266 -0.0128,-0.0414 -0.0174,-0.0455 z m -50.934577,4.89424 c -0.0148,0.002 -0.02899,0.006 -0.04252,0.0119 -0.216558,0.0966 -0.275573,0.73427 -0.01964,1.55556 0.255936,0.8213 0.8268,1.82624 1.555231,2.80214 0.728431,0.97588 1.614439,1.92272 2.145991,2.773 0.531553,0.85028 0.708739,1.60397 0.590613,2.1837 -0.118126,0.57974 -0.531645,0.98545 -1.112419,1.22701 -0.580776,0.24155 -1.328874,0.3189 -2.037614,0.21261 -0.70874,-0.10628 -1.378044,-0.39614 -1.880067,-0.66669 -0.502025,-0.27054 -0.836655,-0.52176 -0.846496,-0.26088 -0.0098,0.26089 0.305095,1.0338 0.728373,1.7005 0.423278,0.6667 0.954813,1.22719 1.86043,1.81659 0.905616,0.5894 2.18521,1.20772 3.38613,1.67151 1.200919,0.46379 2.323165,0.77298 3.474869,1.01453 1.151704,0.24156 2.332916,0.41548 3.189308,0.4348 0.856394,0.0193 1.387939,-0.1159 1.063103,-0.91786 -0.324836,-0.80196 -1.506109,-2.27065 -2.195159,-3.60405 -0.689052,-1.33338 -0.885915,-2.53153 -1.240287,-3.66202 -0.354372,-1.13048 -0.866271,-2.19331 -1.693139,-3.04359 -0.826867,-0.85028 -1.968602,-1.48792 -3.021869,-2.19327 -1.053267,-0.70535 -2.017923,-1.47831 -2.687288,-2.08704 -0.627528,-0.57067 -0.995564,-0.997 -1.217548,-0.96844 z m 18.694957,12.75976 1.5e-4,1.4e-4 c 0.1272,-0.003 0.26435,0.0318 0.41446,0.12363 0.30024,0.18358 0.65217,0.59663 0.87366,1.06888 0.22148,0.47225 0.31247,1.0037 0.38877,1.52426 0.0763,0.52055 0.13776,1.03023 0.13776,1.38411 0,0.35388 -0.0615,0.55186 -0.10704,0.65814 -0.0455,0.10633 -0.0751,0.12112 -0.0899,0.12812 -0.0148,0.007 -0.0147,0.007 -0.0886,-0.023 -0.0738,-0.0302 -0.22143,-0.0906 -0.47367,-0.28378 -0.25224,-0.19324 -0.60907,-0.5193 -0.92283,-0.88525 -0.31377,-0.36596 -0.58455,-0.77181 -0.76174,-1.14381 -0.17718,-0.372 -0.26078,-0.71023 -0.30018,-1.03511 -0.0395,-0.3249 -0.0346,-0.63646 0.0639,-0.88163 0.0984,-0.24518 0.29047,-0.42392 0.51073,-0.53625 0.11012,-0.0562 0.22733,-0.0954 0.35452,-0.0984 z m 12.92999,0.60437 c 0.0692,-9e-4 0.13518,0.004 0.19608,0.0123 0.24362,0.0338 0.40594,0.12802 0.53391,0.27537 0.12796,0.14734 0.2216,0.34794 0.2646,0.58466 0.0431,0.23673 0.0357,0.50963 -0.10705,0.86351 -0.14275,0.35387 -0.42091,0.78873 -0.77651,1.23802 -0.35561,0.4493 -0.78862,0.91302 -1.18359,1.16424 -0.39497,0.25125 -0.75188,0.28965 -0.96845,0.29465 -0.21656,0.005 -0.29282,-0.0241 -0.32602,-0.0555 -0.0333,-0.0314 -0.0235,-0.0653 -0.0185,-0.0822 0.005,-0.0169 0.005,-0.0169 0.0604,-0.27538 0.0554,-0.25846 0.16602,-0.77529 0.31982,-1.2886 0.15381,-0.51331 0.35068,-1.02323 0.57585,-1.47251 0.22517,-0.4493 0.47863,-0.83797 0.76779,-1.0457 0.21687,-0.15576 0.45395,-0.20976 0.66164,-0.21276 z"
         inkscape:transform-center-x="-3.3072915"
         inkscape:transform-center-y="51.263021" /></g></g></svg>
