<?xml version="1.0" encoding="UTF-8" standalone="no"?>
<!-- Created with Inkscape (http://www.inkscape.org/) -->

<svg
   width="210mm"
   height="297mm"
   viewBox="0 0 210 297"
   version="1.1"
   id="svg1"
   inkscape:version="1.3.2 (091e20e, 2023-11-25, custom)"
   sodipodi:docname="Zeee.svg"
   xmlns:inkscape="http://www.inkscape.org/namespaces/inkscape"
   xmlns:sodipodi="http://sodipodi.sourceforge.net/DTD/sodipodi-0.dtd"
   xmlns="http://www.w3.org/2000/svg"
   xmlns:svg="http://www.w3.org/2000/svg">
  <sodipodi:namedview
     id="namedview1"
     pagecolor="#505050"
     bordercolor="#eeeeee"
     borderopacity="1"
     inkscape:showpageshadow="0"
     inkscape:pageopacity="0"
     inkscape:pagecheckerboard="0"
     inkscape:deskcolor="#505050"
     inkscape:document-units="mm"
     inkscape:zoom="0.72426347"
     inkscape:cx="396.26464"
     inkscape:cy="565.40198"
     inkscape:window-width="1920"
     inkscape:window-height="1009"
     inkscape:window-x="-8"
     inkscape:window-y="-8"
     inkscape:window-maximized="1"
     inkscape:current-layer="layer1" />
  <defs
     id="defs1" />
  <g
     inkscape:label="Ebene 1"
     inkscape:groupmode="layer"
     id="layer1">
    <path
       id="path15"
       style="fill:#36c359;fill-opacity:1;stroke-width:0.494061"
       d="m 124.41618,7.6258911 c -0.0515,-0.00368 -0.11106,0.020254
        -0.18035,0.078548 -0.17525,0.1474706 0.14881,0.4589499
         0,0.6258016 -2.17283,2.4372211 -1.94265,1.3621175
          -4.46226,3.1284911 -3.21877,2.256528 -5.70576,5.251538
           -8.92452,7.508069 -1.77707,1.245813 -3.77422,2.147351
            -5.2064,3.753776 -0.33261,0.373082 -0.35164,0.921847 
            -0.74363,1.251603 -2.79008,2.347224 -1.3711,0.395718
             -3.71863,1.876888 -1.7063,1.076572 -2.101461,2.588175
              -3.718639,3.754293 -7.285383,5.253361 -13.583164,11.47798 
              -20.824568,16.893026 -12.976552,9.703728 3.562434,-2.716749
               -6.693649,3.754293 -3.993886,2.519933 -7.421911,5.966909 
               -11.155908,8.759155 -2.004229,1.498733 -4.700456,2.245172
                -6.693648,3.754293 -3.005044,2.275227 -5.35404,5.129508 -
                8.181413,7.508068 -2.263122,1.903885 -5.753095,3.815702 
                -8.180896,5.631181 -4.970181,3.716659 -9.186251,8.146863
                 -14.13092,11.887647 -0.743734,1.042794 -1.305968,2.194261
                  -2.231389,3.128491 -0.965435,0.974625 -2.67565,1.332791 
                  -3.718636,2.50269 -0.798362,0.895516 -1.04898,1.83953 
                  -2.231388,2.502689 -2.141622,1.20111 -6.1784875,3.513233
                   -7.4372722,5.631186 -1.2464577,2.09717 2.1895423,3.68382 
                   2.9750122,5.00537 1.09081,1.83533 -1.0908046,5.04695 
                   0,6.88227 0.4703773,0.79143 1.600313,1.16903 2.231388,
                   1.87689 2.007508,2.2518 4.515864,4.05846 6.693649,6.25698
                    0.696838,0.70347 4.194304,4.95491 4.46226,5.63118 
                    0.156788,0.3957 -0.156812,0.85537 0,1.25109 
                    0.332602,0.83943 1.628226,1.15253 2.231388,1.8774
                     1.341206,1.61186 2.377431,3.3935 3.718636,5.00538 
                     0.402115,0.48327 1.126482,0.74527 1.487248,1.25109
                     0.403339,0.56554 0.393024,1.28753 0.743624,1.8774 
                     0.981922,1.65212 2.496023,3.46262 3.718636,5.00538 
                     0.74373,0.93851 1.487659,0.62555 2.231388,1.87689 
                     0.221737,0.3731 -0.120247,0.84643 0,1.25109 
                     0.278298,0.93649 1.831489,2.45565 2.231388,3.12849
                      1.030866,1.73446 1.373977,3.829 2.230872,5.63118 
                      1.445169,3.03945 4.010139,5.90378 5.950024,8.75967
                       4.413826,6.4981 12.845983,12.73982 16.362309,19.39572 
                       0.636797,1.20536 0.850449,2.54893 1.487248,3.75429 
                       0.363026,0.68716 1.135656,1.18572 1.487764,1.87689 
                       1.259232,2.47182 2.118446,5.64817 2.199866,8.34471 
                       0.0092,-0.0762 -0.01043,-0.17598 0.03101,-0.21084 
                       0.701195,-0.58988 1.98337,0 2.975012,0 h 11.900049 
                       c 6.616052,0 13.510617,-0.50244 20.080429,0 8.00401,0.61216
                       15.7688,2.56548 23.79958,3.12849 1.23527,0.0866 
                       2.48667,-0.11513 3.71864,0 1.01586,0.0949 1.96075,0.51852
                        2.97501,0.62528 6.67652,0.70211 14.14783,0 20.82457,0 0.18232,0
                         0.41036,0.0198 0.59789,0.0227 0.54744,-0.67618 1.07565,-1.36932 
                         1.60352,-2.05879 2.7796,-3.94209 5.46498,-7.94898 8.21449,-11.91245
                          3.56438,-5.01062 7.18092,-9.98516 10.80761,-14.95102 2.76286,
                          -3.72966 5.24931,-7.64795 7.80572,-11.51816 2.49172,-3.71032
                           4.91379,-7.46297 7.18768,-11.31094 1.83083,-3.24698 3.62119,
                           -6.51656 5.43429,-9.77356 -0.13096,-4.15154 -0.32933,-8.92272
                            -0.002,-9.19841 0.1753,-0.14747 0.63266,0.18653 0.74363,0
                             0.39936,-0.67191 0.54279,-4.15863 0.74414,-5.00538 1.75525,-7.38323 0.74362,-15.57252 0.74362,-23.15001 v -9.38547 c 0,-0.219171 0.33386,-0.466662 0.68213,-0.626319 v -5.16e-4 h -5.2e-4 c -0.92288,-0.329872 -2.45888,-1.204107 -3.65662,-1.875855 -0.41255,-0.231381 -1.13665,0.294936 -1.48725,0 -0.17525,-0.147479 0.11097,-0.43926 0,-0.625801 -0.56331,-0.947769 -2.07134,-1.742504 -2.97501,-2.50269 -1.03437,-0.8702 -3.42838,-2.257785 -4.46278,-3.127975 -1.80634,-1.519639 0.22134,-0.919136 -1.48724,-1.877404 -1.71205,-0.960171 -3.54786,-1.386814 -5.20589,-2.50269 -2.04325,-1.375116 -2.67877,-3.504567 -4.46277,-5.005379 -0.87649,-0.737366 -2.13741,-1.108193 -2.97502,-1.876888 -13.27895,-12.186681 -1.82782,-1.199061 -5.9495,-8.133871 -0.31358,-0.527614 -1.06026,-0.783527 -1.48777,-1.251086 -2.05594,-2.248436 -3.84307,-4.667694 -5.94951,-6.882784 -0.87608,-0.921253 -2.19711,-1.521052 -2.97501,-2.50269 -0.74057,-0.934489 -0.8394,-2.146707 -1.48776,-3.128491 -1.30227,-1.972012 -2.71709,-3.917859 -4.46226,-5.630664 -0.5817,-0.570934 -1.71882,-0.635569 -2.23139,-1.251603 -1.27159,-1.528195 -1.79981,-3.423522 -2.97501,-5.005379 -1.31397,-1.768569 -3.13843,-3.242044 -4.46226,-5.00538 -1.65876,-2.209448 -2.77478,-4.68828 -4.46226,-6.882267 -1.72473,-2.242362 -4.63626,-3.825534 -5.95003,-6.256982 -0.74683,-1.382236 -0.83309,-2.964488 -1.48725,-4.379578 -1.08567,-2.34867 -2.71113,-4.509582 -3.71863,-6.8827839 -0.2307,-0.5434579 -0.20305,-1.9297088 -0.56379,-1.9554362 z m 74.87553,84.5441939 c 0.45601,0.162932 0.80512,0.231268 0.80512,5.16e-4 0,-0.123591 -0.1031,-0.168974 -0.25528,-0.160713 -0.15218,0.0083 -0.35344,0.07016 -0.54984,0.160197 z m -12.94184,71.157935 c -0.11011,0.16733 -0.22078,0.33433 -0.33073,0.50177 0.0775,0.044 0.15477,0.0883 0.23202,0.13281 0.0328,-0.20886 0.0624,-0.42953 0.0987,-0.63458 z m -12.54084,18.01182 c -0.0115,0.0159 -0.0231,0.0317 -0.0346,0.0475 0.0128,-0.0139 0.0255,-0.0279 0.0382,-0.0419 -0.001,-0.002 -0.002,-0.004 -0.004,-0.006 z m 8.89196,2.63859 c -0.19333,0.27981 -0.39586,0.55349 -0.58652,0.8351 -0.0672,0.0992 -0.12988,0.20131 -0.19586,0.30127 0.15914,-0.0756 0.31995,-0.14772 0.48473,-0.20619 0.1023,-0.30832 0.20896,-0.61419 0.29765,-0.93018 z m -5.27926,13.89838 c -0.14024,0.11497 -0.2823,0.22757 -0.42323,0.34158 0.21788,-0.0906 0.28574,-0.1053 0.5395,-0.21187 -0.0393,-0.0452 -0.0759,-0.0814 -0.11627,-0.12971 z" />
    <path
    
       id="path16"
       style="fill:#2a9b46;fill-opacity:1;stroke-width:0.512691"
      
       d="m 73.557926,182.72171 c -2.306003,-0.0254 -4.36274,0.0556 -5.46685,0.38086 -4.772865,1.40622 -1.293978,3.80585 -2.258777,4.65863 -0.373361,0.32999 -3.236215,0 -3.765145,0 l -3.011702,2.66237 c 1.803577,5.84514 2.819021,10.72478 6.776847,15.97215 5.077732,6.73211 5.45171,3.5911 10.540959,8.65167 1.344321,1.33677 1.694834,3.30069 3.011702,4.65863 7.038699,7.25825 -0.898671,-1.46012 6.023922,4.65863 4.465314,3.94675 7.505716,9.51105 11.293886,13.97537 3.585042,4.22502 6.293192,8.31945 9.788552,12.64471 1.93056,2.38894 4.95311,4.23813 6.77633,6.65541 0.44028,0.58366 0.19166,1.50022 0.75292,1.99626 0.17737,0.1569 0.50196,0 0.75293,0 0.50195,0.44369 1.11209,0.8091 1.50585,1.33118 0.13913,0.18458 -0.17738,0.50874 0,0.66559 1.15886,1.02427 3.64001,2.93939 4.51807,3.32745 1.43003,0.63197 0.43816,1.6094 0.75293,1.33118 2.06967,-1.8293 2.98354,-4.45213 4.51755,-6.6554 1.91809,-2.75498 5.22442,-6.57337 6.77633,-9.31675 0.70988,-1.25492 0.9163,-2.6909 1.50585,-3.99355 1.90777,-4.21562 5.03863,-8.01576 7.52978,-11.97912 0.31671,-0.50388 0.65545,-0.99264 1.00304,-1.47484 -0.11734,-0.18705 -0.22961,-0.38482 -0.3328,-0.59996 -0.35566,-0.74151 -0.43872,-1.33008 -0.50953,-2.02624 -1.35757,0.44373 -2.54933,-0.0494 -3.05149,-1.7756 -0.0965,-0.33179 -0.0404,-0.69012 -0.0605,-1.03508 0.051,-0.37477 0.0757,-0.75424 0.15297,-1.12448 0.74785,-3.58346 3.0063,-6.64394 4.6271,-9.85366 1.39523,-2.38371 2.09082,-3.63186 3.61219,-5.97741 1.65356,-2.54938 3.423,-5.01879 5.26841,-7.43056 1.60381,-4.11447 3.21898,-8.22463 4.97747,-12.27625 0.0428,-0.097 0.0778,-0.17616 0.11886,-0.26975 -7.76255,0.13044 -22.54393,0.43237 -24.08845,-0.0796 -1.17499,-0.38945 -1.84655,-1.58484 -3.01171,-1.99678 -1.12094,-0.39633 -10.1501,-1.24483 -10.54095,-1.33119 -1.08893,-0.24062 -1.92934,-1.06962 -3.01222,-1.33066 -3.42433,-0.82545 -7.04879,-0.76997 -10.54096,-1.33119 -2.03625,-0.32723 -3.99394,-0.97242 -6.02341,-1.33118 -4.597072,-0.81265 -11.594072,0 -16.564879,0 -1.966551,0 -6.501768,-0.3385 -10.345105,-0.38086 z m 98.417254,7.5029 c -0.13062,-0.0225 -0.36556,-0.006 -0.64131,0.0243 0.16499,0.11026 0.30265,0.2295 0.41651,0.35708 0.0816,-0.0545 0.1628,-0.10797 0.24702,-0.18241 0.1331,-0.11765 0.10574,-0.1769 -0.0222,-0.19896 z m -25.13904,35.11465 c -0.081,0.12959 -0.17537,0.25049 -0.25993,0.37776 -0.52324,1.09697 -0.91445,2.24912 -0.971,3.48041 8.1e-4,0.0147 0.006,0.0562 0.007,0.0749 0.0307,-0.0798 0.0664,-0.17114 0.0827,-0.22996 0.33586,-1.21417 0.73735,-2.40962 1.11259,-3.61218 0.0146,-0.0467 0.0141,-0.0452 0.0284,-0.091 z" >
     <animateTransform
      attributeName="transform"
      type="translate"
      values="0,0; 15,0; 10,10; 5,15; 0,0"
      dur="1s"
      repeatCount="indefinite"
    />
    </path>
    
    <path
       style="fill:#030a05;fill-opacity:1;stroke-width:0.506814"
       d="m 37.734975,104.21157 c 11.225628,-0.3158 22.323006,-1.31275 33.571032,-1.31275 7.708889,0 15.417799,0 23.126707,0 1.74072,0 3.481438,0 5.222152,0 0.994694,0 1.989394,0 2.984104,0 0.24867,0 0.85723,-0.19569 0.746,0 -0.31454,0.5535 -1.0832,0.80917 -1.49205,1.31275 -0.84279,1.03814 -1.21274,2.37976 -2.238054,3.28187 -1.658865,1.45952 -4.186966,1.9386 -5.968178,3.28186 -0.994695,0.87515 -1.989402,1.75033 -2.984095,2.6255 -0.497347,0.21879 -1.05783,0.35074 -1.492041,0.65638 -4.060332,2.85791 -0.493629,1.09066 -4.476134,4.59459 -0.634006,0.55782 -1.664081,0.70672 -2.238067,1.31276 -0.711957,0.75168 -0.87517,1.81135 -1.492054,2.62547 -1.379392,1.82045 -3.096743,3.43056 -4.476133,5.25098 -0.497348,0.65639 -0.994694,1.31276 -1.492041,1.96912 -0.248681,0.65637 -0.341446,1.37585 -0.746028,1.96911 -0.911298,1.33634 -2.186106,2.53407 -2.984088,3.93824 -0.333637,0.58707 0.235909,1.34644 0,1.96914 -0.111215,0.29354 -0.588754,0.37962 -0.746031,0.65634 -0.210824,0.37101 0.416215,4.85027 -0.746018,4.59462 -1.023536,-0.22512 -1.586249,-1.2392 -2.238072,-1.96911 -2.089679,-2.33999 -3.913581,-4.85619 -5.96818,-7.22008 -3.524839,-4.0555 -8.563717,-7.84913 -11.190344,-12.47109 -0.222422,-0.39138 0.222421,-0.92137 0,-1.31274 -0.932967,-1.64171 -2.019032,-3.55283 -2.98409,-5.25099 -0.731402,-1.287 -1.862052,-0.32379 -2.984092,-1.96913 -0.263603,-0.38654 -1.024793,-2.87075 -1.492046,-3.28185 -0.170515,-0.15004 -2.127549,-0.51051 -2.238069,-0.65637 -0.436205,-0.57569 -0.497346,-1.31275 -0.74602,-1.96912 -0.746025,-0.87517 -1.492052,-1.75032 -2.23807,-2.6255 z"
       id="path17" />
    <path
       style="fill:#030a05;fill-opacity:1;stroke-width:0.481337"
       d="m 113.26862,102.8073 c 7.52983,0 15.05968,0 22.58949,0 11.05943,0 22.11887,0 33.17834,0 1.25147,0 2.86789,0.0784 3.5296,1.25136 1.4601,2.58826 -3.62365,6.17324 -4.94146,7.50813 -4.72203,4.78316 -8.70427,10.24703 -13.41251,15.01622 -3.00812,3.04707 -7.13531,5.51245 -9.8829,8.75947 -0.50905,0.60158 -0.81193,1.34532 -1.41187,1.87703 -0.37203,0.32976 -1.03977,0.29592 -1.41184,0.62568 -1.04676,0.92778 0.6948,4.3995 0,5.63108 -0.19783,0.35074 -3.02389,-0.41558 -5.64736,-3.12838 -0.48426,-0.50074 -0.37315,-1.28713 -0.70592,-1.87703 -0.8956,-1.58757 -2.34857,-2.98401 -3.52962,-4.37974 -1.94244,-2.2955 -2.72473,-4.87385 -4.23553,-6.88242 -0.29187,-0.38804 -0.99089,-0.34589 -1.41183,-0.62569 -1.69422,-1.12621 -3.67081,-2.87811 -4.94147,-4.37972 -1.06169,-1.25469 -1.58627,-3.283 -2.82369,-4.37975 -0.37203,-0.32976 -1.09613,-0.25259 -1.41182,-0.62567 -2.04119,-2.4122 -2.73529,-7.97711 -4.23554,-10.63651 -0.6401,-1.13468 0.42519,-2.51007 0.70593,-3.75406 z"
       id="path18" />
    <path
       style="fill:#38ba5d;fill-opacity:1;stroke-width:0.35683"
       d="m 125.71059,41.235221 c 1.3313,0.810345 2.77885,1.462842 3.99391,2.431036 1.47808,1.177784 2.05054,3.416039 2.99542,4.862081 0.57208,0.875512 1.37761,1.586589 1.99695,2.431041 0.64091,0.87386 0.85681,2.043386 1.49771,2.91725 1.81986,2.481316 7.18297,7.244652 9.48553,9.237948 1.14671,0.992698 2.24618,2.048759 3.49465,2.91725 0.60559,0.421278 1.39136,0.551138 1.99695,0.972416 1.76157,1.225414 3.28981,3.049362 4.99239,4.375875 1.08305,0.843839 3.05262,1.514328 3.99389,2.431037 0.88542,0.862317 1.42659,2.083909 2.49618,2.917246 0.83208,0.648285 1.58249,1.410909 2.4962,1.944839 0.4874,0.284807 1.99103,0.480441 2.49619,0.972407 0.11767,0.114594 -0.0923,0.351365 0,0.486217 1.08148,1.579883 5.40925,5.652778 6.98933,6.80691 0.29768,0.217434 0.73534,0.229959 0.99848,0.486203 0.42426,0.413201 0.5742,1.045422 0.99846,1.458622 0.26312,0.256259 0.70079,0.268769 0.99848,0.486218 1.6665,1.217244 2.76301,3.252559 4.49314,4.375868 0.85844,0.557354 2.05271,1.25624 2.99542,1.944825 1.97617,1.443451 0.032,0.517294 1.99695,2.431043 0.42427,0.413201 1.07343,0.559218 1.49771,0.97242 0.42427,0.413201 0.63848,0.991147 0.99849,1.458627 0.43485,0.56467 3.37213,2.91902 3.99389,3.40346 1.21915,0.94986 2.51655,1.58363 3.49465,2.91724 0.43259,0.58979 0.47225,1.43233 0.9985,1.94484 2.2743,0 0.44375,-0.32414 0.99847,0.4862 0.38337,0.56006 3.56305,3.33685 2.49619,4.37587 -0.11767,0.11459 -0.38157,-0.11459 -0.49925,0 -0.23534,0.22921 0.14886,0.68251 0,0.97242 -1.18337,2.30499 -2.1118,5.19762 -2.99541,7.77934 -0.43397,1.26787 -0.45792,2.66126 -0.9985,3.88966 -0.23634,0.53709 -0.73013,0.93597 -0.99846,1.45862 -1.10278,0.63145 -0.1841,1.66374 -0.49925,2.43104 -0.59703,1.45366 -1.87859,2.97243 -2.49618,4.37588 -0.84432,1.91866 -1.28114,4.05951 -2.49619,5.83448 -0.75392,1.10139 -1.94789,1.58233 -2.49618,2.91725 -0.12368,0.30096 0.12355,0.67147 0,0.97242 -0.22283,0.54255 -0.73015,0.93596 -0.99848,1.45862 -0.23534,0.45842 -0.22847,1.01917 -0.49923,1.45864 -0.62177,1.00922 -1.94531,1.84425 -2.49619,2.91724 -1.25424,2.44299 0.59785,0.85716 -1.99695,3.88967 -0.23823,0.27839 -0.7752,0.19628 -0.99848,0.4862 -0.5377,0.69822 -0.50137,1.70485 -0.99848,2.43104 -1.05074,1.53496 -2.01946,3.43635 -2.99541,4.86207 -0.39165,0.57213 -1.10609,0.8865 -1.49771,1.45864 -0.78313,1.14402 -1.01024,2.92868 -1.99697,3.88965 -1.22434,1.19238 -3.68193,2.79583 -4.49313,4.37588 -0.14886,0.28992 0.10524,0.66491 0,0.9724 -0.52026,1.52006 -2.02933,3.60759 -2.99543,4.8621 -0.6097,0.7917 -2.03267,1.52818 -2.49618,2.43104 -0.0744,0.14495 0,0.32413 0,0.4862 0,0.32415 0.14884,0.6825 0,0.97242 -0.85517,1.66571 -2.49619,1.00884 -2.49619,2.91724"
       id="path24" />
    <path
       style="fill:#000000;fill-opacity:1;stroke-width:0.481337"
       d="m 110.62385,103.00032 c 10.55166,0.4939 21.22453,-0.62289 31.76647,0 11.28104,0.66658 0.85486,0.62568 4.23554,0.62568 5.34286,0 10.23966,0.62568 15.53028,0.62568 2.11778,0 4.23554,0 6.35331,0 0.94123,0 1.88245,0 2.82369,0 0.2353,0 0.70591,-0.20856 0.70591,0 0,0.46636 -0.49222,0.8252 -0.70591,1.25135 -0.72784,1.45144 -1.55108,2.87291 -2.11779,4.37974 -0.14878,0.39571 0,0.83424 0,1.25135 -0.2353,1.04279 -0.32649,2.11951 -0.7059,3.12838 -0.37208,0.98928 -1.51247,1.60852 -2.11777,2.5027 -1.38972,2.05292 -2.17058,4.24922 -3.52962,6.25677 -0.85606,1.26459 -2.60665,1.90133 -3.5296,3.12839 -0.41276,0.54875 -0.29317,1.32827 -0.70592,1.87702 -1.25498,1.66847 -0.23369,-2.50705 -1.41185,0.62567 -0.54315,1.44423 -0.08,2.99275 -0.70592,4.37974 -0.68856,1.52573 -2.21687,2.76626 -2.82369,4.37975 -0.35506,0.94413 -0.18899,2.21215 -0.70593,3.12837 -0.2353,0.41713 -1.17654,0.20856 -1.41184,0.62569 -0.21045,0.37309 0.14879,0.85564 0,1.25133 -0.10535,0.27982 -0.60067,0.34588 -0.70592,0.62569 -0.29087,0.77344 -2.06312,6.83402 -2.11775,6.88245 -0.60462,0.53586 -5.97643,-1.83464 -6.35332,-2.50271 -0.5288,-0.93741 -1.84704,-1.1572 -2.11774,-1.87704 -0.41117,-1.09325 -0.29479,-2.03512 -0.70593,-3.12839 -0.10535,-0.2798 -0.6007,-0.34586 -0.70592,-0.62567 -0.1488,-0.39569 0.21047,-0.87828 0,-1.25135 -0.10535,-0.18653 -0.53955,0.14746 -0.70595,0 -0.33276,-0.29495 0.21048,-0.87826 0,-1.25135 -0.39909,-0.7075 -1.6621,-3.3502 -2.11774,-3.75407 -0.16639,-0.14746 -0.6007,0.18655 -0.70592,0 -0.21045,-0.37307 0.14879,-0.85562 0,-1.25134 -0.99947,-2.65754 -4.41681,-3.91475 -6.35329,-5.6311 -0.90636,-0.80331 -0.70277,-2.18565 -1.41186,-3.12837 -1.30525,-1.73531 -2.68601,-3.43584 -4.23552,-5.00541 -0.3465,-0.35097 -1.09615,-0.25261 -1.41186,-0.62568 -0.44645,-0.52763 -0.37313,-1.28713 -0.70591,-1.87703 -0.29764,-0.52762 -1.20137,-0.69174 -1.41185,-1.25136 -0.14878,-0.3957 0.14879,-0.85562 0,-1.25134 -0.2703,-0.7187 -1.68533,-0.86809 -2.11777,-1.25136 -0.16636,-0.14747 0,-0.41711 0,-0.62567 -0.2353,-0.20856 -0.42904,-0.46208 -0.70591,-0.62568 -0.61914,-0.36583 -1.59162,-0.15929 -2.11778,-0.62568 -0.37204,-0.32976 -0.33385,-0.92159 -0.70591,-1.25135 -0.52616,-0.46637 -1.5916,-0.15929 -2.11776,-0.62567 -0.91328,-0.80948 -2.82371,-3.25822 -2.82371,-4.37975"
       id="path22" />
    <path
       style="fill:#0b4d14;fill-opacity:1;stroke-width:0.481337"
       d="m 104.98993,189.02558 c 0.23529,3.33694 0.47059,6.67389 0.70592,10.01082 0.2353,1.45991 0.58737,2.90875 0.70592,4.37974 0.94342,11.70654 -1.17135,23.59019 1.41184,35.03787 0.29848,1.32279 1.48861,2.6388 2.11777,3.75406 1.04485,1.85216 1.77882,4.40461 2.82367,6.25677 1.17188,2.07731 3.45749,3.56223 4.23555,5.63109 0.67766,1.80192 -0.31378,3.82353 0.70591,5.63108 1.20956,2.14414 3.52962,3.00284 3.52962,6.25678"
       id="path23" >
      <animateTransform
      attributeName="transform"
      type="translate"
      values="0,0; 15,0; 10,10; 5,15; 0,0"
      dur="1s"
      repeatCount="indefinite"
    />
       </path>
    <path
       style="fill:#000000;fill-opacity:1;stroke-width:0.264583"
       d="m 37.627306,104.11439 c 0.895985,2.40418 1.463352,4.98186 2.557195,7.30627 0.674425,1.43316 1.489355,2.02328 2.191882,3.28783 3.973105,7.9462 -1.155224,-1.73284 2.191883,3.28782 1.522507,2.28376 2.562227,4.97632 4.018449,7.30627 0.979524,1.56724 2.512734,2.28466 3.653136,3.65314 0.232476,0.27897 1.571115,2.10673 1.82657,2.19188 2.114679,0.70489 -1.108091,-1.4734 1.461254,1.09594 0.08611,0.0861 0.279207,-0.0861 0.365313,0 1.333214,1.33321 2.246675,3.18736 3.287823,4.74908 1.017527,1.52629 2.454093,2.7163 3.287824,4.38376 0.63677,1.27354 1.189797,2.74491 1.826567,4.01845 0.625843,1.25169 1.846924,2.63862 2.191882,4.01845 0.118137,0.47254 -0.191873,1.01356 0,1.46126 0.279699,0.65263 0.70208,1.23577 1.095941,1.82656 0.191051,0.28658 0.621713,0.40389 0.730626,0.73063 0.07702,0.23105 -0.05907,0.49436 0,0.73063 0.272341,1.08936 1.229461,1.76353 1.461257,2.92251 0.07164,0.35822 -0.258316,0.83763 0,1.09594 0.439052,0.43905 1.429067,0.11169 1.826567,-0.36532 0.419806,-0.50376 0.437364,-1.24003 0.730628,-1.82656 1.343417,-2.68684 0.6072,-1.02089 2.191882,-2.92251 1.299941,-1.55993 1.987881,-3.55446 3.287821,-5.11439 2.741938,-3.29033 6.490497,-7.13598 8.402214,-10.95941 0.967621,-1.93524 2.207914,-3.58986 3.287824,-5.47971 0.273984,-0.47947 0.913283,-1.96356 1.095941,-2.19188 0.170098,-0.21262 0.538091,-0.17277 0.730626,-0.36531 0.369641,-0.36964 0.516633,-1.46991 0.730628,-1.82657 0.177205,-0.29534 0.576599,-0.42257 0.730629,-0.73063 0.224533,-0.44907 0.206541,-0.98494 0.365312,-1.46125 0.421228,-1.26368 1.783774,-2.98722 2.557196,-4.01845 0.848254,-1.13101 0.84102,-2.77798 1.461254,-4.01845 0.435186,-0.87038 1.146008,-1.61146 1.461256,-2.5572 0.568688,-1.70606 1.107845,-3.43737 1.826564,-5.11439 0.2797,-0.65263 0.87141,-1.15296 1.09594,-1.82657 0.42784,-1.28351 0.426,-2.98319 1.46126,-4.01845"
       id="path31" />
    <path
       style="fill:#000000;fill-opacity:1;stroke-width:0.264583"
       d="m 108.49815,104.11439 c 1.38542,4.15625 0.76855,2.65006 4.01845,8.76753 2.81104,5.29136 6.47144,9.53021 10.5941,13.88192 0.65409,0.69042 1.46125,1.21771 2.19188,1.82656 1.09594,0.97417 2.28286,1.85474 3.28782,2.92251 0.95157,1.01104 1.61902,2.26436 2.5572,3.28783 1.13951,1.24309 2.681,2.19493 3.65314,3.65313 0.60415,0.90623 0.82819,2.03623 1.46125,2.92251 0.30029,0.4204 0.79566,0.67554 1.09594,1.09594 0.94744,1.32641 1.34749,3.03273 2.19188,4.38377 1.88585,3.01736 0.31901,-0.0463 1.82657,1.46125 0.62092,0.62092 0.89911,1.51731 1.46126,2.19188 1.28934,1.54721 2.10605,3.0946 3.28782,4.74908 0.34134,0.47788 1.86012,3.02192 2.5572,2.55719 2.38994,-1.59329 3.32003,-7.60886 4.74907,-10.22878 0.42048,-0.77088 1.04803,-1.41708 1.46126,-2.19188 0.56438,-1.05821 0.84421,-2.25942 1.46125,-3.28782 0.48932,-0.81553 1.31597,-1.38951 1.82657,-2.19188 0.35206,-0.55324 0.48709,-1.21771 0.73063,-1.82657 0.48708,-0.60886 1.02874,-1.17781 1.46125,-1.82657 1.04729,-1.57093 2.00239,-3.45817 2.92251,-5.11439 0.45038,-0.81068 0.60443,-1.77078 1.09594,-2.5572 0.41325,-0.66119 1.04801,-1.16537 1.46126,-1.82656 0.65732,-1.05172 1.31686,-4.40082 1.82657,-5.11439 0.35388,-0.49545 1.07147,-0.62821 1.46125,-1.09595 0.45897,-0.55076 1.41576,-3.19683 1.82657,-4.01845 0.58655,-1.17311 2.59744,-4.7404 3.28782,-5.84502 0.55816,-0.89305 2.23637,-4.29478 1.82657,-5.11439 -0.26639,-0.53278 -0.5844,-0.5844 -0.73063,-0.73062 -0.0861,-0.0861 0.0861,-0.27921 0,-0.36532 -0.16754,-0.16754 -9.16684,0 -10.22878,0 -3.16605,0 -6.3321,0 -9.49815,0 -2.43543,0 -4.89918,0.37033 -7.30628,0 -0.64813,-0.0997 -1.18139,-0.61332 -1.82657,-0.73062 -2.05699,-0.374 -4.82694,0 -6.94096,0 -4.26199,0 -8.52398,0 -12.78597,0 -3.65314,0 -7.30628,0 -10.95941,0 -2.47041,0 -4.87729,-0.12049 -7.30628,0.36531 z"
       id="path32" />
  </g>
</svg>
